<?xml version="1.0" encoding="utf-8"?>
<!-- Generator: Adobe Illustrator 15.0.0, SVG Export Plug-In  -->
<!DOCTYPE svg PUBLIC "-//W3C//DTD SVG 1.1//EN" "http://www.w3.org/Graphics/SVG/1.1/DTD/svg11.dtd" [
	<!ENTITY ns_flows "http://ns.adobe.com/Flows/1.0/">
]>
<svg version="1.1"
	 xmlns="http://www.w3.org/2000/svg" xmlns:xlink="http://www.w3.org/1999/xlink" xmlns:a="http://ns.adobe.com/AdobeSVGViewerExtensions/3.0/"
	 x="0px" y="0px" width="104px" height="104px" viewBox="0 0 104 104" overflow="visible" enable-background="new 0 0 104 104"
	 xml:space="preserve">
<defs>
</defs>
<polygon fill="#55BE8E" points="83.646,17.708 70.256,20.229 83.677,24.605 87.043,36.271 90.427,24.542 103.821,20.441 
	90.436,17.74 87.037,4.331 "/>
<polygon fill="#55BE8E" points="59.239,0.001 57.792,5.711 52.074,6.79 57.804,8.657 59.243,13.64 60.686,8.629 66.407,6.88 
	60.69,5.727 "/>
<g>
	<defs>
		<rect id="SVGID_1_" width="103.821" height="103.895"/>
	</defs>
	<clipPath id="SVGID_2_">
		<use xlink:href="#SVGID_1_"  overflow="visible"/>
	</clipPath>
	<path clip-path="url(#SVGID_2_)" fill-rule="evenodd" clip-rule="evenodd" fill="#55BE8E" d="M5.675,35.799l30.103-9.748
		l0.603-0.005l30.833,9.849c1.949,0.623,4.943,0.719,5.018,3.279c0.965,33.29-8.309,56.54-36.143,64.721
		C2.434,94.624-0.916,63.768,0.167,39.167C0.274,36.712,3.788,36.411,5.675,35.799 M6.938,41.819l28.841-9.357l0.599-0.006
		l29.071,9.299c0.445,0.351,0.795,0.587,0.826,1.664c0.806,27.794-8.281,45.501-30.186,52.906
		C8.18,87.629,5.203,63.952,6.104,43.413C6.15,42.374,6.413,42.151,6.938,41.819"/>
	<path clip-path="url(#SVGID_2_)" fill="#55BE8E" d="M34.135,48.909c0.939,0.254,1.797,0.382,2.626,0.38
		c0.826-0.001,1.649-0.132,2.528-0.4c2.268-0.687,4.551-1.146,6.596-0.842c2.24,0.332,4.136,1.514,5.349,4.133l0.002,0.006
		c0.405,0.879,0.74,1.801,1.005,2.758c0.261,0.938,0.454,1.908,0.582,2.902c0.652,5.024-0.392,10.484-2.602,14.828l-0.001,0.004
		c-0.277,0.545-0.582,1.09-0.913,1.629c-0.319,0.52-0.682,1.057-1.087,1.604c-2.042,2.762-4.832,5.152-8.174,5.869l-0.013,0.004
		c-0.068,0.014-0.137,0.029-0.206,0.041c-0.057,0.012-0.128,0.023-0.212,0.037c-0.351,0.061-0.712,0.102-1.083,0.121
		c-1.777,0.1-2.398-0.881-2.49-2.523c-0.044-0.785,0.068-1.695,0.193-2.713c0.271-2.207,0.615-5.014-0.697-6.792
		c-1.368,1.366-1.037,4.296-0.772,6.634c0.141,1.241,0.266,2.344,0.147,3.219c-0.198,1.484-0.887,2.311-2.514,2.092
		c-2.419-0.324-4.552-1.439-6.361-3.082c-2.515-2.285-4.398-5.605-5.529-9.221c-1.118-3.58-1.505-7.476-1.039-10.953
		c0.408-3.035,1.469-5.773,3.264-7.748l0.008-0.01c0.413-0.451,0.876-0.84,1.38-1.172c0.496-0.326,1.019-0.588,1.559-0.793
		C28.333,47.913,31.535,48.207,34.135,48.909 M36.761,51.809c-1.075,0.004-2.143-0.152-3.278-0.459
		c-2.189-0.59-4.831-0.857-6.912-0.066c-0.381,0.144-0.74,0.322-1.065,0.535c-0.317,0.209-0.618,0.463-0.895,0.767l-0.009,0.01
		c-1.432,1.576-2.288,3.836-2.631,6.383c-0.417,3.111-0.064,6.621,0.95,9.865c1.004,3.209,2.647,6.131,4.818,8.104
		c1.363,1.24,2.937,2.1,4.687,2.402c0.046-0.568-0.057-1.475-0.171-2.484c-0.345-3.049-0.781-6.9,1.895-9.053
		c0.501-0.404,0.799-0.645,1.363-0.688c0.648-0.049,1.068,0.197,1.625,0.803c2.406,2.611,1.957,6.277,1.607,9.125
		c-0.112,0.916-0.212,1.732-0.182,2.268c0.005,0.082-0.304,0.15-0.169,0.143c0.267-0.016,0.537-0.047,0.806-0.092
		c0.038-0.006,0.09-0.016,0.153-0.027c0.053-0.01,0.105-0.021,0.156-0.031l0.013-0.004c2.657-0.57,4.95-2.574,6.672-4.9
		c0.327-0.441,0.648-0.922,0.958-1.426c0.298-0.486,0.57-0.973,0.814-1.451l0.001-0.004c1.997-3.924,2.941-8.848,2.356-13.364
		c-0.112-0.862-0.282-1.716-0.513-2.548c-0.227-0.814-0.515-1.609-0.867-2.37l-0.003-0.007c-0.792-1.713-2.002-2.48-3.421-2.691
		c-1.613-0.24-3.544,0.162-5.498,0.754C38.903,51.641,37.84,51.807,36.761,51.809"/>
	<path clip-path="url(#SVGID_2_)" fill="#55BE8E" d="M30.186,56.764c-0.295-0.107-0.448-0.434-0.341-0.729
		c0.108-0.294,0.434-0.448,0.729-0.341l0.065,0.023l0.025,0.01c0.494,0.176,0.989,0.33,1.486,0.457
		c0.507,0.129,1.017,0.234,1.533,0.314c2.635,0.411,5.361,0.172,8.151-0.717c0.299-0.094,0.619,0.072,0.713,0.371
		c0.095,0.299-0.071,0.619-0.37,0.713c-2.959,0.943-5.858,1.197-8.668,0.758c-0.549-0.086-1.096-0.199-1.639-0.339
		c-0.535-0.136-1.064-0.3-1.587-0.487c-0.011-0.002-0.022-0.006-0.032-0.01L30.186,56.764z"/>
</g>
</svg>
